<svg xmlns="http://www.w3.org/2000/svg" viewBox="0 0 400 240" role="img" aria-label="Plano mesa completa">
  <defs>
    <style>
      .room{fill:#ffffff;stroke:#94a3b8;stroke-width:6;rx:18;ry:18}
      .table{fill:#7bb7b0;stroke:#0f766e;stroke-width:4;rx:10;ry:10}
      .side{fill:#8bc0b9;stroke:#0f766e;stroke-width:3;rx:10;ry:10}
      .chair{fill:#334155;opacity:.9;rx:8;ry:8}
      .accent{fill:#e2e8f0}
    </style>
  </defs>

  <rect x="18" y="14" width="364" height="212" class="room" rx="22" ry="22"/>

  <rect x="86" y="84" width="228" height="74" class="table"/>
  <rect x="22" y="104" width="56" height="34" class="side"/>
  <rect x="322" y="104" width="56" height="34" class="side"/>

  <rect x="96" y="52" width="26" height="22" class="chair" rx="8" ry="8"/>
  <rect x="132" y="52" width="26" height="22" class="chair" rx="8" ry="8"/>
  <rect x="168" y="52" width="26" height="22" class="chair" rx="8" ry="8"/>
  <rect x="206" y="52" width="26" height="22" class="chair" rx="8" ry="8"/>
  <rect x="242" y="52" width="26" height="22" class="chair" rx="8" ry="8"/>
  <rect x="278" y="52" width="26" height="22" class="chair" rx="8" ry="8"/>

  <rect x="96" y="168" width="26" height="22" class="chair" rx="8" ry="8"/>
  <rect x="132" y="168" width="26" height="22" class="chair" rx="8" ry="8"/>
  <rect x="168" y="168" width="26" height="22" class="chair" rx="8" ry="8"/>
  <rect x="206" y="168" width="26" height="22" class="chair" rx="8" ry="8"/>
  <rect x="242" y="168" width="26" height="22" class="chair" rx="8" ry="8"/>
  <rect x="278" y="168" width="26" height="22" class="chair" rx="8" ry="8"/>

  <rect x="44" y="30" width="34" height="180" class="accent" rx="10" ry="10"/>
  <rect x="322" y="30" width="34" height="180" class="accent" rx="10" ry="10"/>
</svg>

